<?xml version="1.0" standalone="no"?>
<!DOCTYPE svg PUBLIC "-//W3C//DTD SVG 20010904//EN"
 "http://www.w3.org/TR/2001/REC-SVG-20010904/DTD/svg10.dtd">
<svg version="1.0" xmlns="http://www.w3.org/2000/svg"
 width="400.000000pt" height="400.000000pt" viewBox="0 0 400.000000 400.000000"
 preserveAspectRatio="xMidYMid meet">

<g transform="translate(0.000000,400.000000) scale(0.100000,-0.100000)"
fill="#000000" stroke="none">
<path d="M0 2000 l0 -2000 2000 0 2000 0 0 2000 0 2000 -2000 0 -2000 0 0
-2000z m1230 1815 c0 -82 66 -146 207 -199 111 -42 165 -82 224 -166 39 -56
86 -90 125 -90 10 0 41 -26 70 -57 l53 -56 -6 44 c-9 73 -38 116 -113 170 -99
72 -136 154 -106 233 19 50 50 82 89 91 31 8 31 6 16 -46 -11 -34 -9 -42 14
-82 35 -60 76 -92 173 -138 85 -41 128 -77 175 -146 35 -50 71 -77 122 -91 33
-9 37 -8 37 7 0 10 3 38 6 62 5 41 2 50 -46 122 -41 63 -59 82 -91 95 -48 18
-46 33 7 50 53 18 114 2 177 -46 55 -42 92 -100 176 -277 68 -141 93 -173 169
-216 72 -41 109 -74 134 -123 l19 -38 21 42 c50 100 169 109 139 11 -14 -48
-14 -169 0 -282 11 -91 11 -89 -44 -234 -21 -55 -6 -67 36 -27 26 25 42 32 73
32 22 0 50 -7 62 -16 l23 -16 -39 -42 c-48 -52 -77 -131 -69 -189 7 -53 -18
-118 -76 -200 -44 -61 -119 -137 -135 -137 -5 0 -18 -9 -30 -21 -19 -17 -21
-27 -16 -57 9 -54 35 -134 51 -157 7 -11 13 -25 13 -33 0 -7 24 -41 54 -77 56
-65 76 -112 76 -175 0 -19 9 -52 20 -73 33 -62 25 -100 -38 -179 -32 -41 -32
-46 1 -173 9 -33 20 -94 24 -135 8 -72 9 -75 36 -78 16 -2 34 -14 44 -28 14
-22 15 -35 5 -100 -14 -87 -61 -234 -103 -316 -34 -68 -77 -97 -116 -79 -35
16 -51 14 -58 -9 -14 -43 -80 -34 -143 21 -32 28 -35 29 -58 15 -43 -29 -90
-21 -138 24 -50 46 -61 49 -77 18 -25 -49 -51 -68 -92 -68 -22 0 -59 -10 -83
-22 -40 -20 -49 -20 -96 -9 -29 6 -86 28 -127 48 l-75 35 -26 -32 c-27 -33
-28 -33 -71 -22 -76 19 -113 21 -134 6 -27 -20 -39 -18 -76 13 -23 20 -34 24
-37 15 -2 -7 -14 -25 -26 -39 -21 -24 -25 -25 -60 -13 -28 9 -41 9 -49 1 -18
-18 -44 -13 -65 14 -24 30 -33 31 -50 5 -8 -13 -23 -20 -45 -20 -18 0 -42 -7
-53 -15 -31 -24 -81 -19 -100 10 -14 22 -14 29 0 79 22 74 21 80 -16 91 -27 8
-34 16 -36 41 -2 19 5 45 17 65 12 19 21 42 21 53 0 18 -16 18 -62 1 -8 -3
-25 2 -37 13 -19 15 -24 30 -26 82 -3 60 0 73 41 157 24 51 44 95 44 98 0 3
-7 5 -15 5 -8 0 -19 8 -24 19 -14 26 3 80 57 182 l46 86 -32 70 c-18 38 -32
76 -32 84 0 39 -33 120 -75 183 -45 69 -75 147 -75 196 0 15 7 51 17 81 l16
54 10 -35 c21 -82 39 -118 76 -154 l38 -37 -5 49 c-3 36 0 52 12 65 10 9 21
41 26 71 5 30 18 71 28 93 22 42 78 103 95 103 6 0 -5 16 -24 35 -25 23 -43
56 -59 102 -29 88 -60 143 -105 181 -19 17 -35 34 -35 37 0 14 62 2 108 -21
38 -19 59 -38 81 -75 33 -53 42 -61 34 -29 -6 24 3 26 24 5 8 -9 17 -14 19
-13 2 2 -11 40 -29 83 -25 63 -46 95 -98 150 -84 88 -111 141 -117 226 -3 52
0 75 17 114 12 26 23 46 26 43 3 -3 -3 -20 -12 -39 -25 -49 -22 -151 6 -214
12 -27 48 -76 80 -110 62 -65 75 -85 126 -206 l33 -78 -30 15 c-29 15 -30 15
-23 -5 12 -38 -13 -22 -57 36 -48 63 -99 103 -131 103 -20 0 -19 -2 5 -27 30
-33 55 -80 93 -181 22 -59 34 -78 66 -99 l38 -25 -42 -32 c-74 -57 -107 -124
-107 -221 0 -36 3 -46 10 -35 5 8 10 35 10 60 1 97 62 174 172 214 78 29 78
29 78 17 0 -4 -19 -12 -42 -18 -24 -5 -42 -14 -41 -20 1 -6 -5 -17 -15 -25
-16 -12 -16 -11 -2 6 14 18 13 18 -9 11 -25 -8 -80 -58 -82 -75 -3 -19 -14
-51 -31 -87 -14 -28 -18 -134 -6 -150 5 -7 5 -14 -1 -17 -5 -3 -12 6 -15 21
-6 26 -48 58 -61 45 -11 -11 -5 -58 11 -80 23 -33 13 -36 -26 -9 -49 32 -99
102 -106 148 -8 46 -20 43 -29 -9 -10 -60 11 -126 69 -217 34 -54 61 -111 75
-162 12 -43 33 -102 47 -131 l26 -53 -51 -102 c-28 -56 -52 -118 -53 -137 -3
-32 0 -35 25 -38 15 -2 27 -9 27 -16 0 -7 -22 -55 -49 -107 -39 -75 -49 -104
-49 -144 0 -74 11 -89 63 -82 32 5 46 2 56 -9 11 -13 8 -24 -15 -66 -36 -63
-30 -95 17 -100 31 -3 32 -4 29 -48 -10 -125 -8 -135 16 -138 12 -2 34 6 49
17 17 14 33 19 46 15 15 -5 27 2 48 27 l28 34 31 -30 c26 -25 39 -30 96 -32
60 -2 65 -1 74 21 13 36 27 39 64 17 36 -22 66 -27 82 -12 16 16 97 17 132 2
33 -14 35 -13 63 17 17 18 33 32 36 32 3 0 40 -16 83 -35 99 -44 163 -55 190
-30 11 10 28 15 38 13 11 -3 26 -1 35 3 10 6 18 5 22 -1 16 -25 51 -8 83 40
17 28 38 50 45 50 7 0 33 -20 57 -45 36 -37 51 -45 80 -45 19 0 44 7 54 15 27
21 29 20 81 -25 59 -51 100 -55 110 -10 8 34 24 38 66 13 27 -16 30 -16 56 3
34 25 50 58 98 195 53 151 60 279 16 279 -33 0 -49 32 -56 115 -5 52 -18 103
-37 148 -33 79 -32 100 11 149 55 64 66 111 32 142 -13 12 -20 37 -24 91 -8
88 -29 134 -86 189 -22 22 -43 52 -46 67 -4 15 -13 33 -21 40 -8 6 -14 26 -14
45 0 18 -4 35 -9 38 -13 8 -20 97 -9 120 5 12 39 44 75 71 124 94 193 205 191
310 0 63 30 163 57 185 8 7 15 18 15 25 0 33 -58 20 -102 -22 -63 -60 -86 3
-43 122 23 61 26 83 21 136 -3 35 -9 128 -12 207 -5 105 -10 142 -19 142 -26
0 -57 -37 -74 -90 -10 -30 -22 -55 -26 -55 -4 0 -14 21 -23 47 -20 65 -71 121
-143 159 -33 18 -78 52 -98 76 -43 48 -100 153 -125 228 -43 132 -147 235
-235 235 -42 0 -43 -9 -2 -46 21 -18 52 -60 70 -93 28 -53 31 -67 31 -146 0
-83 -1 -87 -17 -72 -10 8 -38 21 -63 27 -45 12 -69 33 -165 146 -30 34 -62 57
-131 90 -69 33 -103 56 -137 94 -54 60 -74 109 -57 140 14 27 8 35 -18 21 -25
-13 -62 -88 -62 -126 0 -57 38 -114 110 -161 74 -49 104 -92 115 -164 4 -25
13 -55 21 -67 13 -21 13 -23 -3 -23 -10 0 -45 29 -78 65 -47 51 -67 65 -89 65
-29 0 -47 16 -163 143 -40 45 -61 57 -214 125 -111 49 -179 125 -179 199 l0
27 -21 -21 c-13 -12 -23 -39 -26 -65 -9 -78 51 -167 165 -243 41 -27 102 -91
102 -107 0 -4 -19 14 -43 39 -37 39 -50 46 -92 50 l-50 5 39 -33 c21 -18 45
-47 52 -65 19 -44 18 -182 -1 -283 -20 -103 -13 -138 41 -210 24 -32 48 -70
54 -86 13 -35 4 -65 -20 -65 -20 0 -60 44 -60 67 0 25 -48 108 -82 140 -58 56
-116 67 -155 31 l-23 -21 39 -18 c75 -33 121 -127 121 -246 0 -112 15 -150 87
-219 34 -33 63 -66 63 -72 0 -21 -36 -13 -60 13 -12 13 -54 36 -91 51 -82 31
-122 73 -145 151 -16 55 -17 159 -1 181 11 14 31 17 22 2 -17 -28 -23 -122
-11 -169 20 -78 55 -115 134 -145 38 -15 80 -38 92 -51 13 -14 28 -25 34 -25
6 0 -12 20 -40 45 -68 59 -90 112 -98 240 -4 77 -11 111 -30 150 -28 56 -74
90 -112 82 -35 -6 -38 7 -7 43 54 64 120 60 190 -12 41 -43 83 -114 83 -142 0
-8 11 -28 24 -43 22 -25 25 -26 31 -10 11 27 -1 58 -44 115 -63 83 -67 108
-46 275 16 133 16 147 1 199 -17 60 -61 108 -98 108 -25 0 -19 22 10 35 12 5
22 14 22 18 0 5 -20 31 -44 58 -76 84 -94 182 -43 237 32 35 57 29 57 -13z
m207 -269 c-3 -8 1 -20 9 -26 8 -7 14 -9 14 -5 0 4 23 -16 52 -44 28 -27 56
-47 62 -44 6 3 8 3 4 -1 -3 -4 0 -15 8 -24 7 -10 21 -26 30 -37 l16 -20 -7 20
c-4 14 7 7 37 -21 24 -23 49 -39 57 -37 9 4 11 1 6 -7 -6 -10 -4 -11 6 -4 8 4
19 9 26 10 14 2 63 -49 108 -113 17 -24 38 -43 47 -43 9 0 20 -5 23 -10 4 -7
-3 -9 -22 -5 -62 14 -93 27 -87 37 4 6 10 6 17 -1 16 -16 27 -13 21 4 -4 8
-10 12 -15 9 -5 -3 -9 -2 -8 3 4 17 -14 43 -30 43 -12 0 -10 -5 9 -20 22 -17
21 -25 -3 -21 -5 1 -6 -3 -2 -9 13 -22 -15 -8 -44 21 -37 37 -40 27 -6 -23 15
-23 54 -54 98 -79 88 -52 123 -83 148 -131 11 -21 20 -38 22 -38 1 0 2 16 3
35 0 18 -3 32 -7 29 -4 -2 -10 4 -14 15 -3 11 -26 38 -50 60 -37 34 -50 40
-71 35 -21 -5 -25 -4 -19 6 5 8 4 11 -2 7 -6 -4 -19 0 -29 8 -18 14 -17 15 11
9 17 -4 31 -11 33 -15 2 -4 9 -6 17 -3 16 6 55 -13 72 -35 7 -9 13 -12 13 -7
0 11 30 -14 30 -26 0 -5 -5 -6 -12 -2 -7 4 -8 3 -4 -5 4 -6 11 -9 16 -6 5 3
18 -7 29 -21 27 -35 27 -21 0 23 -12 19 -40 48 -62 64 -45 33 -39 40 8 9 44
-29 53 -24 20 10 -16 17 -25 30 -19 30 14 -1 48 -31 93 -83 23 -27 41 -42 41
-34 0 16 -70 127 -103 164 -11 12 -16 27 -12 34 5 7 4 10 -2 6 -16 -10 -24 18
-10 33 9 10 9 11 0 6 -13 -7 -15 -1 -16 41 0 12 -4 21 -9 20 -6 -1 -14 8 -19
21 -5 15 -5 21 1 17 20 -13 -4 31 -39 70 -20 22 -26 31 -13 21 16 -14 22 -15
22 -6 0 8 11 3 28 -13 16 -15 31 -25 33 -22 8 8 61 -48 104 -109 22 -32 53
-65 69 -73 19 -10 25 -18 17 -22 -8 -5 -3 -12 14 -19 15 -7 24 -8 20 -2 -8 14
-3 13 44 -8 22 -10 38 -22 33 -27 -4 -5 -1 -5 6 -1 11 6 10 12 -4 27 -9 10
-13 19 -8 19 5 0 2 5 -6 10 -8 5 -10 10 -4 10 5 0 19 -7 30 -15 19 -15 19 -15
-1 -9 -15 5 -17 4 -9 -5 6 -7 20 -14 30 -16 11 -1 18 -8 17 -13 -2 -6 4 -9 11
-6 9 3 20 -4 27 -18 6 -13 15 -25 18 -28 15 -13 35 -43 24 -36 -29 17 -8 -12
35 -49 26 -22 38 -28 26 -15 -25 30 -63 107 -56 114 6 6 66 -84 67 -99 0 -5 6
-11 13 -11 6 -1 14 -3 17 -4 3 -1 9 -3 14 -4 5 0 18 -12 30 -26 l22 -25 -7 25
c-4 14 -11 27 -15 28 -5 2 -9 9 -9 15 0 6 -21 34 -47 61 l-48 50 55 -45 c132
-107 199 -193 225 -287 l13 -47 1 39 c1 22 -8 58 -19 80 -19 39 -158 202 -169
200 -3 -1 -27 16 -53 38 -52 44 -108 142 -108 192 0 21 -3 27 -9 18 -6 -10
-11 -6 -20 15 -15 37 -40 137 -36 141 9 9 48 -86 47 -113 -1 -25 0 -27 7 -10
l10 20 1 -20 c1 -20 1 -20 9 0 7 17 8 17 13 -7 3 -15 1 -25 -3 -22 -5 3 -9 -4
-9 -16 0 -12 4 -18 10 -15 6 3 7 -1 4 -10 -4 -8 -2 -21 4 -28 11 -12 12 -15
13 -44 0 -16 2 -15 10 2 9 19 9 19 5 -2 -2 -12 2 -30 10 -40 13 -17 14 -17 8
2 -3 11 3 5 15 -12 23 -36 38 -45 21 -13 -6 11 -8 20 -6 20 3 0 12 -13 21 -30
9 -16 13 -30 9 -30 -4 0 -1 -7 6 -15 7 -8 16 -13 20 -10 4 2 34 -23 68 -55 33
-33 65 -60 71 -60 6 0 16 -10 22 -22 12 -22 11 -22 -7 -8 -18 14 -18 14 -5 -3
10 -12 17 -14 26 -7 30 25 96 -113 98 -207 1 -36 5 -57 10 -50 5 7 7 3 4 -11
-3 -12 -1 -20 3 -17 5 3 13 -3 19 -12 6 -10 11 -13 11 -6 0 7 7 10 15 7 12 -5
15 2 15 29 0 20 6 37 14 40 10 4 12 -1 9 -16 -4 -18 -3 -19 6 -7 6 8 11 10 11
4 0 -6 -3 -14 -7 -18 -5 -4 -8 -11 -8 -14 -2 -20 -17 -52 -24 -48 -4 3 -6 -12
-5 -32 2 -22 0 -27 -3 -13 -4 19 -7 21 -14 10 -7 -11 -9 -9 -9 8 0 42 -15 31
-31 -23 -9 -29 -12 -51 -7 -48 5 3 6 -6 1 -23 -9 -34 -9 -67 2 -112 6 -25 5
-32 -3 -27 -8 5 -12 -2 -11 -21 0 -23 2 -25 8 -9 5 13 10 16 15 8 3 -6 13 -9
20 -6 10 4 12 -2 8 -22 -3 -18 -1 -25 6 -20 15 9 14 -85 -1 -103 -9 -12 -9
-13 1 -7 7 4 12 1 12 -9 0 -9 5 -13 10 -10 25 16 6 -20 -26 -48 -20 -18 -40
-41 -45 -52 -6 -11 0 -8 11 8 33 42 45 32 13 -12 -15 -22 -32 -37 -38 -33 -5
3 -7 2 -3 -3 4 -4 3 -14 -3 -22 -6 -7 -8 -13 -4 -13 5 0 0 -10 -11 -22 -19
-22 -19 -22 1 -8 17 14 17 12 -3 -16 -24 -35 -66 -49 -87 -28 -10 11 -15 11
-18 1 -4 -8 -6 -8 -6 0 -1 6 21 30 48 53 46 40 101 122 101 151 0 11 -3 11
-11 -1 -8 -12 -10 -9 -6 13 6 39 -10 44 -18 5 -8 -36 -45 -105 -58 -106 -21
-4 -67 -34 -62 -42 7 -11 -13 -24 -45 -27 l-25 -3 25 20 25 20 -32 -11 c-18
-6 -31 -14 -29 -17 2 -4 -46 -8 -107 -9 -62 -1 -134 -2 -162 -3 -27 -1 -63 3
-79 9 -25 10 -28 15 -22 42 3 18 6 37 6 44 0 7 14 15 32 19 124 25 184 197
113 325 -36 65 -85 100 -151 107 -62 6 -115 -22 -158 -84 -25 -35 -31 -55 -34
-112 -4 -57 0 -76 19 -115 27 -53 77 -100 127 -116 32 -10 33 -13 30 -57 l-3
-47 -52 -9 c-76 -13 -87 0 -79 83 3 35 3 61 0 58 -9 -9 -94 91 -94 110 0 11 9
5 25 -17 14 -19 25 -29 25 -24 0 6 -5 15 -12 22 -7 7 -8 12 -3 12 5 0 -1 7
-13 16 -12 8 -22 24 -22 35 0 12 -7 19 -20 19 -18 0 -20 7 -20 79 0 78 0 79
31 91 20 9 38 28 52 57 16 34 26 43 46 43 26 1 26 1 -4 15 l-30 14 30 -6 c53
-10 54 -28 5 -62 -36 -24 -50 -39 -50 -55 0 -5 20 10 45 33 24 22 49 41 54 41
5 0 8 8 7 17 0 10 9 19 24 23 l25 7 -27 8 c-16 4 -26 11 -23 15 3 4 -5 19 -16
34 -30 38 -16 32 42 -20 49 -44 116 -81 126 -71 5 6 -60 57 -72 57 -5 0 0 -7
11 -16 18 -14 18 -15 -4 -4 -20 10 -21 14 -10 28 11 13 11 15 -4 9 -12 -4 -15
-2 -12 8 3 8 11 12 19 9 7 -3 15 2 19 11 3 9 2 13 -3 10 -5 -3 -12 -1 -16 5
-4 6 5 10 20 10 15 0 24 4 20 10 -3 6 -4 10 -1 10 2 0 13 3 23 6 15 5 15 4 3
-5 -13 -9 -12 -11 5 -10 26 1 74 17 56 18 -12 1 -12 4 -3 13 9 9 8 16 -4 29
-9 10 -11 20 -6 23 5 3 15 -1 22 -9 7 -8 9 -15 5 -15 -5 0 0 -9 10 -20 13 -15
20 -48 27 -142 14 -187 28 -209 25 -43 -2 134 -1 140 18 140 11 0 34 8 52 18
23 12 34 14 39 5 5 -7 2 -9 -7 -4 -8 4 -5 1 5 -8 10 -8 27 -34 38 -57 17 -40
17 -42 1 -56 -10 -8 -3 -6 15 4 42 22 102 87 103 111 1 11 4 8 8 -8 6 -19 2
-31 -16 -51 -18 -20 -21 -28 -11 -32 7 -3 3 -6 -10 -6 -13 -1 -20 -5 -17 -11
3 -5 1 -10 -5 -10 -6 0 -8 -4 -5 -10 3 -5 16 -10 28 -10 18 0 19 2 7 11 -12 8
-12 10 5 8 37 -3 46 1 39 14 -6 9 -5 9 8 0 8 -7 18 -10 21 -6 4 3 7 1 7 -6 0
-8 -7 -11 -17 -6 -13 4 -15 3 -7 -5 13 -13 40 -4 48 16 4 10 2 13 -7 8 -9 -5
-9 -4 0 6 8 9 9 20 2 38 -5 13 -7 27 -4 30 2 3 9 -6 14 -19 5 -13 10 -17 10
-9 1 22 -36 90 -67 123 -47 49 -98 28 -90 -39 l4 -35 -18 23 c-10 13 -36 59
-57 103 -45 92 -73 122 -121 131 -34 7 -34 6 -19 -12 34 -40 30 -45 -12 -15
-49 36 -121 59 -194 62 -27 1 -59 7 -70 12 -27 14 -67 18 -59 6 3 -5 9 -7 13
-5 4 3 26 -12 48 -32 29 -26 64 -45 117 -62 42 -13 73 -28 69 -33 -3 -6 -1 -7
5 -3 7 4 21 1 31 -6 32 -22 -276 -16 -348 7 -69 21 -159 82 -201 135 -17 22
-37 37 -42 34 -7 -5 -8 -2 -3 6 6 9 4 11 -5 5 -9 -6 -11 -4 -5 5 6 9 4 11 -5
5 -9 -6 -11 -4 -5 5 6 10 21 0 59 -42 53 -57 143 -124 153 -114 4 3 1 6 -6 6
-6 0 -53 42 -104 93 -81 82 -102 111 -167 232 -56 102 -87 149 -124 181 -56
51 -77 57 -46 14 31 -43 71 -140 64 -152 -4 -6 -3 -8 3 -5 5 3 21 -39 36 -100
31 -122 53 -163 110 -204 44 -32 56 -36 53 -16 -2 13 -46 75 -46 64 0 -3 -15
9 -32 26 -20 19 -29 35 -23 40 7 5 7 10 0 15 -5 4 -17 16 -25 27 -14 20 -14
20 7 1 22 -18 22 -18 18 3 -5 28 -1 27 20 -5 12 -18 13 -24 4 -19 -8 3 -5 -1
6 -10 11 -9 19 -20 18 -25 -2 -5 11 -20 27 -34 17 -13 30 -30 30 -36 0 -6 11
-33 25 -60 28 -56 94 -123 175 -180 59 -42 113 -86 91 -75 -7 4 -46 11 -86 16
-106 12 -182 53 -275 149 -41 43 -94 87 -117 99 -42 21 -70 47 -37 34 12 -5
15 -3 9 6 -6 10 -3 11 14 2 24 -13 28 -23 6 -15 -28 11 -15 -4 17 -20 40 -20
44 -20 27 1 -8 9 4 4 25 -12 31 -24 37 -26 29 -10 -17 32 -44 52 -104 79 -66
29 -115 81 -126 133 -4 21 -8 41 -9 46 -1 4 -2 15 -3 25 0 10 -7 26 -13 35
-11 15 -14 7 -17 -50 -2 -38 -4 -96 -5 -131 0 -49 -2 -58 -9 -40 -5 13 -9 39
-8 58 1 27 -1 32 -10 20 -8 -12 -9 -9 -4 10 4 14 11 29 16 34 12 13 12 29 0
22 -10 -6 10 92 22 111 4 7 3 14 -3 18 -5 3 -10 11 -10 18 0 6 6 2 14 -8 8
-11 12 -24 9 -31 -5 -13 50 -74 66 -74 6 0 11 6 11 13 0 9 2 9 8 -1 5 -7 16
-10 25 -6 9 3 14 10 11 15 -3 5 2 6 10 3 9 -3 16 -1 16 5 0 20 -27 78 -40 86
-9 6 -9 3 -1 -13 15 -28 13 -42 -2 -17 -6 11 -12 29 -14 40 -1 11 -3 27 -6 35
-2 8 -7 29 -12 45 -4 17 -12 36 -18 43 -5 6 -6 12 -2 12 4 0 -8 19 -27 43 -30
36 -40 67 -21 67 3 0 3 -6 0 -14z m133 -100 c0 -6 -4 -5 -9 2 -4 8 -12 12 -16
10 -5 -1 -9 5 -11 15 -2 18 -2 18 17 1 10 -9 19 -22 19 -28z m828 -174 c0 -15
7 -47 16 -71 9 -24 15 -45 13 -47 -1 -1 -14 20 -29 47 -14 27 -23 49 -19 49 4
0 6 13 5 30 -1 16 2 28 6 25 5 -3 9 -18 8 -33z m-573 -130 c-3 -3 -16 5 -28
17 l-22 23 28 -17 c15 -10 25 -20 22 -23z m-148 13 c0 -8 -4 -12 -9 -9 -4 3
-8 9 -8 15 0 5 4 9 8 9 5 0 9 -7 9 -15z m-222 -106 c-3 -4 3 -13 12 -20 14
-12 16 -12 9 1 -4 8 5 -1 20 -19 16 -19 41 -48 56 -63 41 -42 61 -76 52 -89
-4 -7 -3 -9 4 -5 12 7 17 -15 26 -113 3 -29 13 -65 22 -80 l17 -26 -26 24
c-15 13 -24 28 -20 34 3 6 1 7 -4 4 -6 -4 -18 5 -28 19 -27 41 -39 16 -19 -41
33 -97 77 -150 184 -219 85 -56 82 -64 -26 -65 -67 -1 -136 19 -174 50 -14 11
-19 18 -12 14 11 -6 10 -1 -1 21 -19 37 -40 54 -106 90 -60 32 -101 84 -101
128 l0 29 25 -27 c20 -21 30 -26 48 -20 12 5 25 7 30 6 4 -1 7 3 7 9 0 5 5 7
10 4 6 -3 10 4 11 17 0 22 1 22 9 3 8 -18 9 -18 10 5 1 14 1 38 0 54 -1 20 2
26 10 21 9 -5 10 -1 5 16 -11 35 -36 70 -45 64 -5 -3 -6 4 -3 15 4 14 1 20 -8
18 -9 -2 -13 4 -11 16 2 10 -1 15 -6 12 -6 -3 -13 1 -16 9 -4 12 -2 13 13 6
10 -6 21 -17 24 -25 3 -7 22 -26 42 -41 28 -22 38 -25 48 -16 7 7 7 11 2 9 -6
-2 -10 0 -10 4 0 3 -10 17 -21 30 -12 13 -30 39 -39 58 -10 19 -22 38 -28 42
-6 3 -11 35 -13 70 l-3 63 14 -44 c8 -25 12 -48 10 -52z m1085 -22 c0 -5 -16
10 -35 33 -19 23 -35 45 -35 48 0 10 69 -71 70 -81z m-1079 -49 c11 -21 11
-22 -4 -9 -10 7 -17 17 -17 22 0 15 9 10 21 -13z m313 -37 c-3 -3 -15 6 -27
18 l-22 24 27 -19 c14 -10 24 -21 22 -23z m-278 -23 c29 -31 29 -31 2 -12 -15
10 -29 25 -32 32 -8 18 -2 15 30 -20z m1442 -136 c6 -35 6 -50 0 -44 -10 10
-25 111 -15 102 3 -3 10 -29 15 -58z m-457 11 c13 -16 12 -17 -3 -4 -17 13
-22 21 -14 21 2 0 10 -8 17 -17z m-1174 -23 c-3 -10 0 -21 6 -23 7 -2 7 -19 0
-52 l-9 -50 -8 63 c-6 57 -3 82 11 82 3 0 3 -9 0 -20z m1204 -47 c13 -16 12
-17 -3 -4 -10 7 -18 15 -18 17 0 8 8 3 21 -13z m-385 -29 c2 -12 -1 -13 -12
-3 -7 6 -11 16 -8 21 7 11 17 3 20 -18z m-706 2 c0 -3 -4 -8 -10 -11 -5 -3
-10 -1 -10 4 0 6 5 11 10 11 6 0 10 -2 10 -4z m430 -64 c3 -3 -4 -2 -15 3 -11
4 -30 9 -41 10 -12 2 -31 8 -43 15 -18 9 -20 14 -11 25 10 12 19 10 59 -17 25
-17 48 -33 51 -36z m-519 -24 c7 -18 42 -63 76 -101 35 -38 63 -75 63 -82 0
-8 5 -17 11 -21 22 -14 1 68 -25 95 -31 33 -35 52 -4 25 12 -10 18 -13 14 -6
-4 6 -3 12 2 12 15 0 33 -26 24 -35 -4 -5 -1 -5 6 -1 17 10 50 -23 33 -34 -10
-6 -10 -14 3 -38 21 -41 57 -65 149 -97 69 -25 76 -30 64 -44 -8 -9 -17 -24
-20 -33 -6 -16 -10 -16 -52 -3 -25 7 -62 26 -83 41 l-37 29 23 -32 c27 -38 78
-82 108 -93 12 -5 24 -20 26 -35 5 -26 4 -27 -30 -20 -20 4 -65 22 -101 41
-35 19 -69 34 -75 34 -6 -1 3 -9 21 -18 17 -9 41 -29 53 -44 l21 -27 -35 14
c-20 8 -46 15 -58 15 -21 0 -20 -2 9 -20 17 -10 36 -28 42 -38 16 -31 78 -55
126 -50 23 3 50 1 59 -4 13 -7 46 -68 46 -84 0 -11 -26 -1 -52 21 -31 26 -62
32 -73 15 -3 -6 5 -14 18 -19 28 -11 65 -61 44 -61 -20 0 -56 27 -127 96 -65
62 -130 104 -161 104 -9 0 -23 7 -30 17 -13 15 -12 15 9 4 35 -18 34 -10 -1
19 -17 14 -27 19 -23 11 6 -9 5 -12 -5 -9 -8 3 -14 9 -14 14 0 6 -14 28 -31
49 -17 22 -38 60 -47 85 -9 25 -32 69 -51 98 -19 28 -30 52 -24 52 7 0 3 7 -8
16 -18 15 -18 15 2 5 12 -6 24 -8 27 -5 3 3 8 0 13 -7 5 -8 3 -10 -6 -4 -8 5
-11 4 -7 -3 4 -5 15 -8 25 -5 12 3 30 -9 54 -36 24 -27 46 -42 65 -45 17 -1
34 -5 39 -9 5 -3 10 13 11 36 3 40 -12 72 -28 61 -5 -3 -6 1 -3 9 3 8 -12 30
-35 52 -22 21 -38 42 -35 46 2 4 0 10 -5 13 -13 8 -32 66 -22 66 5 0 15 -15
22 -32z m658 17 c54 -27 64 -106 20 -154 -27 -29 -101 -29 -129 -1 -23 23 -17
58 6 39 16 -13 19 -23 4 -14 -5 3 -10 2 -10 -4 0 -5 5 -13 10 -16 6 -3 10 -2
10 4 0 6 12 8 28 5 38 -7 65 16 65 57 0 18 -5 35 -11 37 -6 2 -10 9 -8 15 1 7
1 9 -1 6 -2 -4 -13 -5 -23 -2 -27 7 -70 -23 -71 -50 0 -12 -3 -16 -6 -9 -4 10
-8 10 -19 2 -11 -10 -12 -6 -4 20 20 71 77 98 139 65z m-14 -59 c22 -33 5 -66
-33 -66 -70 0 -70 88 0 90 10 0 25 -11 33 -24z m935 -39 c0 -5 -4 -5 -10 -2
-5 3 -10 -3 -10 -14 0 -11 -5 -23 -10 -26 -6 -4 -8 -16 -5 -28 5 -18 4 -19 -4
-6 -8 12 -6 29 6 63 11 29 20 41 25 33 4 -6 8 -16 8 -20z m-1035 -85 c-3 -3 2
-13 11 -23 14 -16 14 -17 0 -15 -29 4 -47 43 -20 43 8 0 12 -3 9 -5z m995 -30
c0 -15 -2 -15 -10 -2 -13 20 -13 33 0 25 6 -3 10 -14 10 -23z m-934 -7 c1 -8
-3 -18 -8 -22 -6 -3 -8 -1 -4 5 3 6 2 13 -4 17 -6 4 -8 11 -4 16 7 12 17 4 20
-16z m412 -33 c13 -18 27 -30 33 -27 9 6 13 -12 9 -54 -1 -14 2 -21 9 -17 12
8 14 -4 5 -28 -3 -9 -10 -13 -15 -10 -5 3 -9 2 -8 -3 6 -35 -30 -91 -51 -78
-10 6 -2 64 10 78 4 5 1 30 -7 55 -38 118 -32 151 15 84z m-134 -28 c56 -57
56 -149 -1 -194 -33 -26 -52 -25 -94 3 -66 44 -71 138 -11 194 33 31 73 29
106 -3z m-401 -87 c-3 -6 -1 -7 4 -4 6 4 22 -2 34 -13 l24 -19 -55 6 c-30 3
-57 7 -59 9 -2 2 -1 14 3 28 6 23 9 24 31 14 13 -6 22 -15 18 -21z m108 -24
c13 -16 12 -17 -3 -4 -10 7 -18 15 -18 17 0 8 8 3 21 -13z m36 2 c-4 -8 -2
-17 3 -20 6 -4 10 4 11 17 0 13 6 2 13 -25 8 -30 27 -62 49 -85 32 -33 36 -44
43 -109 6 -72 6 -73 -17 -74 -13 0 -41 -1 -61 -2 -20 -1 -35 0 -33 2 2 2 -7
13 -21 26 -31 29 -31 37 1 25 16 -6 25 -6 25 0 0 6 -4 10 -8 10 -5 0 -17 7
-28 16 -10 8 -13 13 -7 9 9 -4 11 -1 7 9 -3 9 -11 13 -18 9 -6 -3 -8 -3 -4 2
4 4 2 15 -5 23 -9 13 -9 14 1 8 20 -12 35 4 20 22 -12 15 -11 16 5 3 16 -12
20 -12 33 1 14 13 12 18 -12 47 -14 17 -21 31 -14 29 7 -2 15 3 18 11 2 8 0
11 -6 7 -6 -3 -14 -1 -18 5 -5 8 -3 9 5 5 8 -5 12 -3 10 5 -2 22 0 39 7 39 3
0 4 -7 1 -15z m1042 -57 c-2 -57 -7 -67 -50 -125 -98 -128 -131 -149 -83 -50
15 31 32 53 37 50 6 -3 7 -1 3 5 -4 6 13 32 39 57 38 39 45 52 45 86 0 21 3
39 6 39 3 0 4 -28 3 -62z m-1195 -8 c7 0 26 -11 44 -24 l32 -23 -53 5 c-51 5
-67 14 -67 41 0 8 6 11 16 7 9 -3 21 -6 28 -6z m-544 -99 c0 -3 -13 7 -28 22
-15 15 -33 27 -39 27 -6 0 -13 10 -16 22 -5 16 5 11 39 -23 24 -24 44 -45 44
-48z m1061 72 c12 -16 12 -17 -2 -6 -9 7 -20 9 -24 5 -5 -4 -5 -1 -1 6 9 16
11 15 27 -5z m-357 -19 c3 -8 2 -12 -4 -9 -6 3 -10 10 -10 16 0 14 7 11 14 -7z
m-154 -109 c4 3 13 -2 20 -10 7 -8 30 -25 51 -37 21 -12 35 -26 32 -31 -3 -6
-1 -7 4 -4 13 8 45 -18 68 -55 16 -26 16 -28 -8 -52 -24 -24 -82 -46 -124 -46
-21 0 -22 -2 -16 -112 6 -107 5 -111 -13 -103 -10 4 -29 10 -42 13 -14 3 -31
20 -44 46 -16 30 -23 36 -26 23 -3 -15 -13 -17 -65 -13 -70 4 -93 11 -101 33
-5 13 9 14 115 8 90 -6 120 -5 115 4 -4 6 -14 11 -22 11 -10 0 -14 13 -15 43
l-2 42 -7 -40 c-6 -38 -9 -37 -23 5 -3 8 -6 2 -6 -13 -1 -25 -3 -26 -21 -17
-14 8 -20 8 -20 0 0 -7 -6 -8 -18 -1 -13 7 -23 6 -31 -2 -10 -9 -15 -8 -26 6
-9 12 -14 14 -17 6 -8 -24 -28 3 -28 37 0 33 1 35 35 32 19 -1 35 -5 35 -8 0
-4 21 -4 48 0 26 5 50 6 55 3 4 -2 21 -1 39 2 l31 7 -54 29 c-30 17 -92 68
-139 114 -66 65 -96 88 -132 98 -62 19 -108 40 -108 50 0 4 10 2 23 -5 12 -6
40 -13 62 -15 66 -5 74 -7 69 -15 -3 -4 0 -8 7 -8 16 0 82 -51 75 -58 -4 -3
-13 3 -21 14 -8 10 -15 14 -15 7 0 -18 129 -99 178 -113 65 -17 84 3 32 33
-16 10 -30 22 -30 28 0 5 11 2 25 -7 59 -39 68 13 17 96 -18 28 -32 59 -32 68
0 9 15 -9 32 -40 17 -32 34 -55 38 -53z m-547 51 c3 4 29 1 57 -6 39 -9 48
-15 40 -25 -8 -9 -4 -11 16 -7 l26 5 -25 -24 c-55 -54 -101 -63 -56 -11 l23
27 -23 -22 c-20 -17 -28 -19 -52 -11 -28 10 -60 51 -74 97 l-7 24 34 -27 c19
-14 37 -23 41 -20z m1007 -154 c1 -9 2 -43 4 -74 3 -62 4 -62 -56 -52 -36 6
-38 8 -37 43 l2 36 7 -35 c4 -21 8 -27 9 -15 l2 20 9 -20 c7 -17 9 -15 9 11 1
17 4 52 7 77 6 41 9 45 25 36 11 -5 19 -17 19 -27z m288 -24 c26 -3 27 -5 30
-69 3 -75 -5 -84 -64 -73 -39 7 -51 19 -29 28 12 4 14 15 9 48 -4 24 -11 54
-16 67 -12 32 10 48 29 21 7 -10 26 -20 41 -22z m-145 22 l27 0 0 -74 0 -74
-32 -6 c-29 -5 -104 6 -112 16 -2 1 2 19 10 38 12 32 13 33 13 9 1 -15 7 -32
15 -38 12 -10 14 -1 12 64 -3 73 -2 76 18 71 12 -3 33 -6 49 -6z m54 -12 c-3
-8 -6 -5 -6 6 -1 11 2 17 5 13 3 -3 4 -12 1 -19z m-140 -35 c-3 -10 -5 -2 -5
17 0 19 2 27 5 18 2 -10 2 -26 0 -35z m-974 16 c-8 -8 -13 -7 -18 2 -5 8 -4
10 3 5 7 -4 12 -2 12 5 0 7 3 9 7 6 4 -4 2 -12 -4 -18z m1313 -85 c-4 -21 -14
-35 -27 -39 -26 -9 -27 -8 -21 44 3 29 7 39 13 30 8 -13 11 -6 8 17 0 4 5 11
13 15 16 10 22 -19 14 -67z m-1146 62 c0 -2 3 -11 6 -20 5 -13 -1 -16 -25 -16
-24 0 -31 4 -31 20 0 15 7 20 25 20 14 0 25 -2 25 -4z m-191 -31 c33 -16 56
-64 48 -97 -7 -26 -54 -58 -85 -58 -10 0 -31 9 -45 20 -15 12 -30 21 -34 20
-4 0 -9 15 -11 35 -7 76 57 117 127 80z m297 6 c-3 -5 1 -12 10 -15 8 -3 12
-2 9 3 -3 5 -2 12 3 15 4 2 9 -4 9 -15 2 -20 -25 -23 -39 -4 -7 9 -2 25 8 25
3 0 3 -4 0 -9z m111 -37 c-7 -7 -62 13 -64 23 -2 9 7 8 32 -4 19 -9 34 -18 32
-19z m735 -4 c-2 -16 -6 -30 -8 -30 -2 0 -4 14 -4 30 0 17 4 30 8 30 5 0 7
-13 4 -30z m-942 -24 c0 -19 3 -41 6 -49 3 -8 -2 -22 -11 -31 -18 -18 -65 -22
-65 -6 0 6 4 10 8 10 5 0 7 25 4 55 l-4 55 31 0 c29 0 31 -3 31 -34z m1200 19
c0 -23 -25 -67 -50 -90 -13 -11 -21 -15 -19 -10 41 99 69 140 69 100z m-462
-59 c85 -8 156 -17 160 -20 3 -4 8 -33 10 -65 5 -62 -3 -74 -45 -77 -18 -1
-21 2 -12 13 10 12 6 17 -13 14 -4 0 -19 14 -34 32 -15 17 -30 31 -33 31 -3
-1 -25 9 -49 23 -42 25 -99 43 -137 43 -12 0 -4 -8 22 -19 25 -12 51 -34 66
-58 22 -35 23 -40 11 -65 -8 -16 -20 -28 -27 -28 -8 0 -7 -4 3 -10 8 -5 20
-10 25 -10 6 0 3 5 -5 10 -13 8 -13 10 1 10 9 0 24 -10 35 -22 10 -13 12 -17
4 -10 -17 15 -34 16 -25 2 7 -11 -63 12 -107 36 -37 20 -52 18 -74 -11 -10
-14 -27 -25 -38 -25 -19 0 -18 1 2 23 23 25 29 52 12 62 -6 4 -10 -7 -10 -24
0 -36 -17 -40 -48 -11 -19 18 -22 19 -22 4 0 -10 7 -25 16 -35 17 -18 7 -20
-28 -4 -28 12 -23 60 9 85 21 16 37 20 75 17 27 -2 54 -10 61 -18 10 -11 9
-11 -5 0 -15 11 -16 10 -5 -13 11 -23 12 -24 19 -5 4 10 10 19 13 19 4 0 4 -4
1 -8 -2 -4 5 -14 16 -21 21 -13 21 -13 0 17 -12 16 -19 32 -16 34 3 3 -2 8
-11 12 -11 4 -14 2 -9 -7 5 -8 2 -7 -9 2 -9 7 -17 21 -17 31 0 20 -25 44 -60
60 -30 12 38 9 278 -14z m496 -37 c2 -24 7 -52 11 -61 9 -23 3 -50 -12 -55 -9
-3 -11 4 -7 25 6 29 -9 52 -21 32 -3 -5 -13 -10 -22 -10 -15 0 -14 2 0 18 23
25 21 35 -2 22 -34 -18 -33 -11 6 34 21 24 39 43 41 42 1 -2 4 -23 6 -47z
m-152 -3 c-15 -24 -29 -42 -31 -40 -4 4 47 84 54 84 2 0 -8 -20 -23 -44z m-86
15 c-11 -4 -21 -20 -23 -37 -6 -42 -13 -43 -13 -1 0 34 9 45 40 46 9 0 8 -3
-4 -8z m-1298 -47 c-3 -14 -5 -12 -10 9 -3 19 -2 25 4 19 6 -6 8 -18 6 -28z
m308 -6 c7 -11 -21 -38 -40 -38 -6 0 -12 11 -12 25 -2 20 3 25 21 25 13 0 27
-5 31 -12z m43 -79 c13 -28 20 -57 17 -65 -3 -8 -1 -14 4 -14 14 0 12 -27 -2
-36 -7 -5 -8 -3 -3 6 4 7 2 16 -5 20 -6 4 -13 19 -13 34 -2 31 -1 30 -21 10
-14 -14 -18 -12 -36 18 l-20 33 26 9 c16 5 23 13 20 22 -3 8 -2 14 3 14 5 0
18 -23 30 -51z m149 7 c14 -55 50 -98 104 -125 l43 -21 -42 3 c-33 2 -39 5
-30 16 10 11 3 13 -36 9 -32 -3 -53 0 -65 9 -15 13 -14 13 8 3 24 -11 24 -10
6 4 -11 9 -26 16 -34 16 -7 0 -10 5 -7 10 3 6 -3 10 -14 10 -13 0 -29 15 -45
43 -14 23 -26 38 -26 32 0 -11 -20 16 -20 28 0 4 33 7 73 7 l73 0 12 -44z
m557 34 c3 -6 -1 -7 -9 -4 -18 7 -21 14 -7 14 6 0 13 -4 16 -10z m-800 -67
c12 -10 15 -14 8 -9 -21 14 -15 -5 9 -31 31 -33 15 -28 -27 8 -19 17 -32 35
-29 40 3 5 -2 12 -10 15 -9 3 -14 10 -11 15 5 8 16 1 60 -38z m1166 -41 c-7
-2 -25 8 -40 23 l-26 27 39 -23 c22 -13 34 -25 27 -27z m-827 -2 c5 0 3 7 -4
15 -23 28 -4 15 29 -19 28 -29 30 -34 13 -29 -12 3 -36 19 -55 37 -18 17 -24
23 -12 14 12 -10 25 -18 29 -18z m989 18 c12 -13 25 -23 30 -23 20 0 71 -98
68 -130 -2 -17 0 -18 9 -5 9 12 10 8 5 -17 -4 -21 -3 -33 4 -33 12 0 15 -39 3
-56 -4 -6 -27 -17 -52 -26 -25 -8 -52 -18 -60 -22 -11 -5 -20 6 -33 45 -34 95
-101 129 -149 74 -16 -18 -32 -25 -58 -25 -45 0 -75 -21 -100 -71 -19 -37 -42
-50 -55 -30 -3 5 -53 28 -112 51 -134 52 -195 56 -229 17 -20 -24 -24 -25 -36
-10 -7 9 -30 28 -50 43 -21 15 -34 31 -30 35 4 5 -1 5 -10 2 -10 -4 -18 -2
-18 3 0 5 -6 7 -12 5 -14 -6 -136 27 -165 44 -17 10 -16 10 4 11 12 0 24 -4
27 -9 3 -5 23 -11 43 -15 21 -3 45 -7 53 -9 8 -2 32 -7 53 -11 21 -5 43 -16
49 -26 7 -10 17 -16 24 -13 7 2 22 0 33 -6 18 -10 20 -9 14 6 -6 16 -4 16 15
-1 32 -27 27 -14 -5 15 -14 13 -22 17 -18 9 8 -13 7 -13 -8 -1 -18 14 -23 26
-8 16 5 -3 12 -1 16 5 3 5 3 10 -2 10 -4 0 -21 12 -38 26 l-30 25 43 -23 c24
-13 52 -38 63 -55 23 -37 34 -42 26 -13 -3 11 0 20 6 20 7 0 -3 14 -22 30 -31
27 -32 30 -12 30 14 0 20 -4 15 -12 -5 -7 -3 -8 5 -3 9 5 32 -12 68 -46 65
-65 61 -36 -6 35 -35 38 -39 44 -16 29 17 -12 38 -30 49 -42 10 -11 22 -18 26
-16 4 3 13 -2 20 -10 7 -8 9 -15 5 -15 -11 0 15 -29 36 -40 27 -15 18 18 -12
41 -13 10 -19 19 -13 19 6 0 19 -9 29 -20 10 -11 21 -17 25 -15 5 3 27 -16 49
-41 24 -28 41 -40 41 -31 0 9 -4 19 -10 22 -5 3 -10 11 -10 17 0 6 9 3 21 -8
15 -14 20 -15 17 -4 -2 8 3 14 10 12 20 -4 5 16 -21 28 -20 10 -21 10 -4 -3
10 -9 15 -17 10 -20 -4 -3 -24 8 -43 25 l-35 29 35 -6 c19 -3 46 -14 60 -24
33 -23 60 -33 60 -21 0 5 -5 12 -10 15 -6 4 -8 10 -5 15 3 5 0 12 -6 16 -8 4
-9 3 -5 -4 10 -16 3 -15 -38 5 -28 13 -33 19 -25 30 13 15 -2 18 -17 3 -11
-11 -84 -2 -84 11 0 11 1 11 39 -2 23 -8 35 -8 45 0 16 14 66 -5 62 -23 -2 -6
-1 -8 1 -4 2 4 12 4 21 1 13 -4 14 -3 3 5 -7 5 -11 14 -7 20 3 6 -2 15 -11 21
-35 20 -1 11 46 -13 26 -14 58 -36 72 -49 13 -14 27 -23 32 -20 5 3 -1 15 -12
27 -11 11 -20 25 -20 31 0 5 -5 11 -13 13 -9 2 -8 0 2 -7 10 -7 11 -11 3 -11
-7 0 -17 9 -23 20 -6 10 -16 17 -23 14 -7 -2 -21 2 -32 10 -19 14 -18 15 12
11 31 -4 87 -30 131 -61 25 -18 31 -4 7 16 -13 11 -13 15 -3 23 10 6 9 8 -4 4
-19 -7 -90 27 -80 38 4 4 -3 4 -15 1 -12 -4 -24 -2 -28 4 -9 15 41 12 54 -3 6
-8 25 -14 42 -15 35 -1 62 -19 52 -36 -3 -6 -2 -7 3 -3 5 5 9 14 9 20 1 7 7
11 15 9 10 -2 11 0 3 10 -5 7 -13 22 -17 33 -6 16 -1 14 23 -9 18 -18 34 -46
39 -70 l9 -41 10 35 9 35 18 -47 c10 -25 15 -52 11 -59 -5 -8 -4 -10 3 -5 7 4
12 1 12 -7 0 -8 8 -21 17 -28 15 -12 16 -12 10 3 -3 10 1 34 9 53 8 20 12 41
8 47 -4 6 -3 8 4 4 6 -3 13 2 15 11 3 10 3 -15 0 -54 -3 -40 -3 -73 0 -73 14
0 27 104 17 139 -9 35 -57 89 -110 125 -19 12 -20 16 -7 16 9 0 27 -10 40 -22z
m-1760 -8 c4 0 5 5 2 10 -11 18 4 10 39 -21 19 -16 39 -30 43 -30 4 0 7 -7 5
-16 -2 -11 1 -14 13 -10 16 7 32 -20 41 -71 4 -22 0 -20 -44 17 -26 23 -52 41
-56 41 -10 0 -44 42 -42 51 0 4 -8 17 -19 30 -11 13 -13 18 -5 12 8 -7 18 -13
23 -13z m438 -32 c28 -26 56 -48 62 -48 6 0 8 -3 5 -6 -12 -11 -89 37 -107 66
-10 17 -20 27 -23 24 -3 -3 -8 -1 -12 4 -3 5 1 9 9 9 8 0 37 -22 66 -49z m969
-9 c25 -6 40 -14 33 -16 -21 -8 -92 17 -120 43 l-28 25 35 -20 c19 -11 55 -25
80 -32z m-110 21 c6 -11 8 -20 6 -20 -3 0 -10 9 -16 20 -6 11 -8 20 -6 20 3 0
10 -9 16 -20z m384 0 c9 -7 16 -9 16 -4 0 4 11 -3 24 -15 18 -17 26 -19 31
-10 5 7 4 10 -2 6 -6 -4 -13 2 -16 13 -7 26 5 26 21 -1 10 -16 11 -24 1 -35
-10 -12 -9 -13 5 -8 14 5 16 -3 16 -60 0 -36 -2 -66 -4 -66 -2 0 -11 21 -21
48 -19 51 -55 112 -67 112 -4 0 -22 9 -40 20 -31 19 -31 19 -5 16 14 -1 33 -8
41 -16z m-1477 -40 c29 -32 28 -36 -2 -36 -16 0 -21 4 -16 9 6 6 0 23 -17 46
-20 27 -22 32 -7 21 11 -8 30 -26 42 -40z m249 -77 c12 -8 55 -16 96 -19 40
-3 84 -6 98 -9 14 -2 42 -6 64 -9 21 -4 42 -9 47 -12 5 -3 9 0 9 6 0 7 8 9 23
5 48 -15 35 -22 -41 -22 -89 -1 -126 -15 -182 -69 -58 -56 -122 -114 -126
-114 -2 0 -4 12 -4 26 0 16 -13 39 -34 60 -25 25 -30 34 -17 35 12 0 12 2 -4
9 -18 8 -18 9 6 9 14 1 47 -10 72 -23 26 -13 47 -19 47 -15 0 18 -126 68 -154
61 -19 -6 -52 13 -98 56 -26 24 -48 49 -48 55 0 6 3 7 7 4 3 -4 13 -1 21 6 9
6 13 7 9 1 -3 -6 13 -32 36 -58 44 -50 47 -51 170 -61 32 -3 62 -7 66 -9 4 -3
21 -1 37 4 16 4 23 9 17 9 -7 1 -13 6 -13 12 0 8 15 9 48 5 45 -6 46 -6 22 8
-14 9 -45 15 -70 16 -80 0 -111 15 -180 87 l-65 67 59 -53 c33 -29 70 -60 82
-68z m233 35 c1 -12 -55 21 -80 48 -22 23 -19 23 28 -8 28 -18 52 -36 52 -40z
m911 47 c33 -17 35 -21 18 -31 -6 -4 -8 -3 -4 4 3 6 -11 16 -36 25 -24 9 -35
16 -25 16 10 1 31 -6 47 -14z m-367 -48 c9 -8 17 -17 17 -20 0 -9 -89 47 -90
56 0 8 44 -14 73 -36z m142 5 c-3 -3 -11 0 -18 7 -9 10 -8 11 6 5 10 -3 15 -9
12 -12z m-974 -34 c17 -24 18 -29 6 -19 -18 14 -42 51 -33 51 3 0 15 -15 27
-32z m-158 -92 c-3 -6 -3 -8 2 -4 4 4 26 -2 48 -14 35 -17 38 -22 23 -30 -9
-5 -30 -6 -47 -3 -27 6 -36 1 -80 -43 -27 -27 -50 -43 -50 -36 -1 8 -2 17 -3
22 -1 4 -6 23 -10 42 -5 19 -12 40 -18 46 -5 7 -8 16 -7 20 3 19 -1 35 -9 30
-4 -2 -12 7 -19 20 -7 14 -7 26 -2 30 5 3 25 -28 43 -69 19 -41 41 -77 50 -80
15 -6 15 -4 1 17 -15 22 -14 24 7 29 13 4 34 3 47 0 17 -4 22 -3 17 5 -4 7
-13 12 -20 12 -15 0 -74 60 -60 61 5 1 16 2 24 3 10 1 14 11 13 31 -2 27 1 24
27 -24 16 -29 27 -59 23 -65z m1082 104 c3 -6 -1 -7 -9 -4 -18 7 -21 14 -7 14
6 0 13 -4 16 -10z m-45 -40 c13 -8 13 -10 -2 -10 -9 0 -20 5 -23 10 -8 13 5
13 25 0z m-34 -48 c-4 -3 -14 2 -24 12 -16 18 -16 18 6 6 13 -6 21 -14 18 -18z
m420 20 c14 -9 49 -78 58 -115 5 -22 11 -27 24 -21 9 4 43 14 74 23 73 20 111
9 116 -33 3 -24 -6 -37 -54 -82 -47 -43 -55 -55 -46 -67 7 -8 19 -48 27 -89 7
-40 19 -87 25 -103 19 -48 15 -138 -6 -173 -22 -38 -13 -50 20 -28 14 9 37 16
51 16 22 0 25 -4 25 -34 0 -42 -41 -197 -78 -296 -33 -89 -51 -98 -105 -51
-44 39 -57 39 -58 -1 -1 -47 -12 -81 -28 -86 -7 -2 -37 21 -66 52 -29 31 -57
56 -62 56 -5 0 -20 -11 -33 -25 -14 -15 -35 -25 -51 -25 -27 0 -31 4 -97 89
-27 36 -44 32 -61 -14 -7 -19 -24 -49 -38 -65 -20 -25 -28 -28 -39 -19 -11 9
-21 9 -40 0 -20 -9 -31 -8 -55 5 l-31 15 4 -28 c3 -27 2 -28 -40 -26 -55 2
-138 41 -189 87 -49 44 -63 45 -63 6 0 -17 -9 -39 -20 -50 -19 -19 -23 -19
-49 -5 -16 8 -32 20 -34 27 -4 9 -10 8 -21 -6 -13 -16 -20 -17 -39 -9 -20 9
-26 8 -36 -9 -15 -25 -51 -18 -99 18 -32 25 -52 25 -52 0 0 -7 -9 -21 -20 -31
-17 -15 -24 -16 -50 -5 -24 10 -33 10 -45 0 -19 -16 -47 6 -65 51 -17 40 -47
39 -58 -3 -4 -18 -18 -38 -30 -44 -12 -6 -30 -18 -40 -27 -24 -22 -51 -22 -59
0 -4 9 1 38 10 64 18 49 22 88 10 90 -5 1 -18 3 -29 4 -32 3 -44 14 -43 38 l0
22 9 -22 c12 -29 35 -21 57 21 l17 31 13 -60 c13 -56 13 -62 -7 -97 -13 -23
-19 -46 -15 -58 8 -27 19 -25 35 5 7 13 17 22 21 19 10 -6 28 27 22 43 -5 13
34 86 74 141 21 28 22 33 8 38 -9 4 -38 4 -65 2 -28 -3 -50 -3 -50 0 0 9 91
116 111 130 23 16 25 42 4 42 -9 0 -45 -7 -81 -16 -62 -16 -65 -16 -79 2 -14
18 -14 18 -15 -3 0 -17 -9 -25 -37 -32 -21 -6 -43 -11 -50 -11 -6 0 -15 -5
-19 -12 -5 -8 9 -10 54 -6 l60 6 4 -41 c3 -36 0 -46 -29 -77 l-33 -35 16 32
c8 18 14 43 12 55 -3 20 -9 23 -53 23 -27 0 -56 4 -62 8 -18 11 -16 37 4 59
14 16 15 18 0 18 -48 0 -25 64 69 191 41 54 74 101 74 104 0 2 -16 -3 -35 -11
-51 -21 -85 -19 -85 7 0 29 116 214 167 268 36 37 47 43 73 39 17 -3 33 -1 36
4 3 4 18 8 34 8 37 0 75 -45 84 -99 3 -23 11 -41 16 -41 6 0 10 4 10 9 0 18
53 72 89 91 20 10 42 29 49 42 25 46 121 80 162 58 16 -9 25 -9 33 -1 23 23
60 11 98 -29 22 -22 41 -51 45 -64 4 -17 11 -22 27 -19 18 3 29 -8 62 -61 22
-37 45 -66 52 -66 17 0 16 3 -7 78 -27 86 -26 118 4 137 18 12 35 14 63 9 44
-8 209 -70 238 -90 33 -23 53 -16 81 29 35 56 51 67 97 67 30 0 44 6 59 25 19
25 43 31 64 17z m-1385 -19 c13 -16 12 -17 -3 -4 -10 7 -18 15 -18 17 0 8 8 3
21 -13z m631 -22 c8 -14 16 -17 24 -10 16 13 69 -51 88 -108 8 -24 13 -43 12
-43 -2 0 -15 18 -30 40 -14 22 -33 40 -41 40 -8 0 -22 12 -32 28 -9 15 -26 37
-37 50 -11 12 -14 22 -8 22 7 0 17 -9 24 -19z m-564 -19 c6 -19 -13 -14 -33 8
-18 20 -18 21 5 12 13 -5 26 -14 28 -20z m-138 -698 c-22 -23 -25 -23 -31 -7
-12 29 -10 31 19 35 38 5 39 2 12 -28z m50 -119 c0 -2 -9 -19 -20 -37 -19 -32
-22 -31 -33 20 -4 19 -1 22 24 22 16 0 29 -2 29 -5z"/>
<path d="M1958 3429 c20 -24 58 -37 46 -17 -4 5 -9 7 -12 4 -3 -4 -17 4 -31
16 l-26 23 23 -26z"/>
<path d="M2016 3378 c3 -5 10 -6 15 -3 13 9 11 12 -6 12 -8 0 -12 -4 -9 -9z"/>
<path d="M1996 3350 c11 -54 39 -114 73 -152 32 -36 40 -55 19 -42 -7 5 -8 3
-4 -5 5 -7 10 -10 13 -7 3 3 33 -17 67 -45 54 -44 161 -97 173 -85 3 2 -5 7
-16 11 -12 3 -21 10 -21 15 0 5 -8 7 -17 3 -10 -3 -15 -3 -11 2 9 10 -10 35
-25 35 -6 0 -2 -7 9 -15 23 -17 12 -20 -15 -3 -18 11 -18 13 -3 25 14 10 15
12 2 13 -9 0 -22 8 -31 18 -8 9 -32 32 -54 51 -47 40 -29 32 40 -18 27 -20 46
-29 41 -21 -4 8 2 4 14 -10 15 -17 20 -20 16 -7 -5 15 -2 16 14 7 10 -5 22
-15 25 -20 9 -15 27 -12 19 3 -4 6 9 -4 29 -22 46 -43 49 -56 5 -15 l-33 29
29 -32 c16 -18 32 -31 36 -30 4 1 17 -9 29 -23 l22 -25 -22 40 c-11 22 -29 49
-39 60 -11 11 -19 24 -19 30 -1 5 -7 10 -14 10 -7 0 -36 10 -63 22 -27 12 -75
33 -106 46 -53 24 -148 99 -148 118 0 5 -9 23 -21 41 l-20 33 7 -35z m154
-196 c0 -2 -9 0 -20 6 -11 6 -20 13 -20 16 0 2 9 0 20 -6 11 -6 20 -13 20 -16z"/>
<path d="M2037 3364 c-10 -11 13 -46 62 -94 29 -29 35 -32 15 -10 -16 19 -36
47 -44 63 -7 15 -17 27 -22 27 -5 0 -6 5 -3 10 7 11 2 13 -8 4z"/>
<path d="M1650 3325 c13 -14 26 -25 28 -25 3 0 -5 11 -18 25 -13 14 -26 25
-28 25 -3 0 5 -11 18 -25z"/>
<path d="M1761 3274 c26 -28 28 -29 25 -9 -3 19 -13 28 -32 31 -12 2 -10 -4 7
-22z"/>
<path d="M1695 3256 c10 -14 19 -26 22 -26 7 0 -17 39 -28 46 -6 3 -3 -5 6
-20z"/>
<path d="M1510 3107 c0 -2 15 -16 33 -33 l32 -29 -29 33 c-28 30 -36 37 -36
29z"/>
<path d="M2046 3081 c-4 -5 -2 -12 3 -15 5 -4 12 -2 15 3 4 5 2 12 -3 15 -5 4
-12 2 -15 -3z"/>
<path d="M2160 3076 c0 -2 8 -10 18 -17 15 -13 16 -12 3 4 -13 16 -21 21 -21
13z"/>
<path d="M1705 3040 c10 -11 20 -20 23 -20 3 0 -3 9 -13 20 -10 11 -20 20 -23
20 -3 0 3 -9 13 -20z"/>
<path d="M2079 3041 c14 -25 20 -27 17 -4 -2 9 -8 19 -15 21 -10 3 -10 0 -2
-17z"/>
<path d="M2160 3046 c0 -2 8 -10 18 -17 15 -13 16 -12 3 4 -13 16 -21 21 -21
13z"/>
<path d="M2455 2960 c10 -11 20 -20 23 -20 3 0 -3 9 -13 20 -10 11 -20 20 -23
20 -3 0 3 -9 13 -20z"/>
<path d="M2520 2943 c0 -6 16 -30 35 -53 23 -27 35 -52 35 -72 0 -18 4 -27 11
-22 10 6 8 26 -8 78 -8 28 16 9 28 -21 5 -14 12 -23 15 -20 14 13 -28 66 -61
77 -19 6 -39 19 -45 28 -5 9 -10 12 -10 5z"/>
<path d="M1735 2880 c10 -11 20 -20 23 -20 3 0 -3 9 -13 20 -10 11 -20 20 -23
20 -3 0 3 -9 13 -20z"/>
<path d="M2057 2869 c18 -18 33 -22 96 -23 41 -1 70 2 64 6 -7 4 -32 8 -57 9
l-45 1 38 8 c20 4 40 10 44 13 11 11 -38 8 -73 -5 -26 -9 -39 -9 -61 1 l-28
12 22 -22z"/>
<path d="M1735 2840 c10 -11 20 -20 23 -20 3 0 -3 9 -13 20 -10 11 -20 20 -23
20 -3 0 3 -9 13 -20z"/>
<path d="M1800 2844 c0 -16 43 -77 59 -82 8 -3 11 0 7 7 -4 6 -3 11 3 11 5 0
14 -8 19 -17 8 -14 42 -29 42 -18 0 2 -25 19 -55 39 -30 20 -59 44 -64 54 -6
9 -11 12 -11 6z"/>
<path d="M2811 2694 c0 -11 3 -14 6 -6 3 7 2 16 -1 19 -3 4 -6 -2 -5 -13z"/>
<path d="M2760 2531 c0 -6 4 -13 10 -16 6 -3 7 1 4 9 -7 18 -14 21 -14 7z"/>
<path d="M2629 2487 c-20 -13 -46 -45 -61 -76 -23 -45 -28 -68 -28 -128 0 -81
14 -119 56 -152 29 -23 64 -27 95 -11 10 6 19 7 19 3 0 -14 -17 -35 -26 -33
-5 1 -15 -9 -23 -22 -13 -21 -12 -21 9 2 19 21 21 22 16 5 -6 -20 -6 -20 9 -1
8 11 15 24 15 29 0 4 4 5 10 2 5 -3 7 0 4 9 -3 8 8 33 25 57 59 81 76 190 42
265 -34 75 -97 95 -162 51z m107 -72 c3 -14 12 -29 20 -33 7 -4 14 -23 15 -42
2 -40 -35 -157 -45 -141 -4 6 -3 19 1 28 9 20 9 99 0 123 -3 8 -8 32 -12 53
-7 42 11 52 21 12z m-85 -56 c45 -45 4 -161 -58 -167 -36 -4 -43 12 -43 95 0
44 4 55 26 72 34 26 49 26 75 0z m119 -129 c-16 -40 -23 -33 -9 9 6 18 14 30
17 27 2 -3 -1 -19 -8 -36z"/>
<path d="M2529 2458 c-48 -67 -62 -99 -50 -111 6 -6 11 -7 11 -1 0 5 4 3 9 -4
7 -11 9 -10 14 3 5 11 3 14 -5 9 -8 -5 -9 -2 -5 10 4 10 3 15 -3 11 -20 -12
-9 13 30 68 46 66 45 78 -1 15z"/>
<path d="M1971 2338 c-1 -20 3 -39 8 -43 18 -10 21 14 7 47 l-14 33 -1 -37z"/>
<path d="M2833 2265 c0 -22 2 -30 4 -17 2 12 2 30 0 40 -3 9 -5 -1 -4 -23z"/>
<path d="M2851 2274 c0 -11 3 -14 6 -6 3 7 2 16 -1 19 -3 4 -6 -2 -5 -13z"/>
<path d="M2503 2205 c0 -22 2 -30 4 -17 2 12 2 30 0 40 -3 9 -5 -1 -4 -23z"/>
<path d="M2432 2190 c0 -19 2 -27 5 -17 2 9 2 25 0 35 -3 9 -5 1 -5 -18z"/>
<path d="M2790 2153 c0 -21 -9 -54 -20 -73 l-21 -35 26 28 c19 21 25 39 25 73
0 24 -2 44 -5 44 -3 0 -5 -17 -5 -37z"/>
<path d="M2107 2067 c-4 -10 -7 -33 -6 -50 0 -27 2 -29 9 -12 8 18 9 18 9 -5
1 -19 3 -22 10 -10 6 8 7 18 4 24 -4 5 -9 23 -13 40 -5 25 -7 28 -13 13z"/>
<path d="M2390 2060 c8 -5 20 -10 25 -10 6 0 3 5 -5 10 -8 5 -19 10 -25 10 -5
0 -3 -5 5 -10z"/>
<path d="M2451 2037 c-18 -20 -30 -40 -27 -46 4 -6 1 -11 -8 -11 -8 0 -17 5
-19 10 -3 6 -4 5 -3 -2 3 -14 75 -13 89 1 5 5 7 25 5 45 l-3 37 -34 -34z"/>
<path d="M2530 2035 c0 -24 6 -37 19 -45 52 -28 69 6 26 53 -34 36 -45 34 -45
-8z"/>
<path d="M2257 2014 c-4 -4 -7 -14 -7 -23 0 -11 3 -12 11 -4 6 6 10 16 7 23
-2 6 -7 8 -11 4z"/>
<path d="M2517 1979 c7 -7 15 -10 18 -7 3 3 -2 9 -12 12 -14 6 -15 5 -6 -5z"/>
<path d="M1480 3006 c0 -2 8 -10 18 -17 15 -13 16 -12 3 4 -13 16 -21 21 -21
13z"/>
<path d="M1460 2643 c0 -17 40 -63 68 -77 15 -8 37 -24 50 -36 12 -11 22 -17
22 -12 0 5 -9 17 -21 28 -11 10 -26 28 -32 39 -6 12 7 5 31 -17 59 -53 66 -47
10 7 -27 26 -57 45 -69 45 -12 0 -31 7 -41 17 -10 9 -18 12 -18 6z"/>
<path d="M1748 2673 c7 -3 16 -2 19 1 4 3 -2 6 -13 5 -11 0 -14 -3 -6 -6z"/>
<path d="M1272 2392 c25 -15 68 -86 68 -111 0 -16 79 -115 102 -128 29 -16 48
-16 28 0 -9 7 -38 44 -65 82 l-50 70 48 -41 c26 -23 56 -44 67 -47 28 -7 25 2
-5 13 -13 5 -44 35 -67 66 -68 91 -93 114 -125 114 l-28 -1 27 -17z"/>
<path d="M1470 2306 c0 -14 54 -66 70 -66 5 0 17 -3 27 -6 10 -3 1 5 -19 19
-21 13 -36 26 -34 28 2 2 -7 12 -20 22 -19 15 -24 15 -24 3z"/>
<path d="M1900 2541 c0 -22 16 -36 24 -22 8 12 -3 41 -15 41 -5 0 -9 -9 -9
-19z"/>
<path d="M2343 2193 c4 -3 1 -13 -6 -22 -11 -14 -10 -14 5 -2 16 12 16 31 1
31 -4 0 -3 -3 0 -7z"/>
<path d="M2016 2087 c3 -10 9 -15 12 -12 3 3 0 11 -7 18 -10 9 -11 8 -5 -6z"/>
<path d="M2039 2065 c-1 -5 -2 -23 -3 -40 -1 -21 -5 -29 -16 -27 -11 3 -10 -2
4 -17 23 -25 25 -26 21 -3 -1 9 2 27 6 40 6 14 5 30 -1 40 -5 9 -10 13 -11 7z"/>
<path d="M1841 1886 c-12 -14 -11 -16 3 -10 9 3 32 -1 52 -11 20 -9 38 -14 41
-11 4 3 0 6 -7 6 -9 0 -7 5 6 14 19 15 19 15 -1 14 -11 0 -34 3 -51 7 -22 5
-34 2 -43 -9z"/>
<path d="M1270 2056 c0 -2 7 -7 16 -10 8 -3 12 -2 9 4 -6 10 -25 14 -25 6z"/>
<path d="M2421 1884 c0 -11 3 -14 6 -6 3 7 2 16 -1 19 -3 4 -6 -2 -5 -13z"/>
<path d="M2403 1835 c0 -27 2 -38 4 -22 2 15 2 37 0 50 -2 12 -4 0 -4 -28z"/>
<path d="M1282 1803 c-7 -3 -21 -22 -31 -43 -17 -34 -17 -41 -4 -57 13 -17 14
-16 8 7 -5 21 -4 22 5 8 13 -21 67 -24 93 -4 48 37 -12 113 -71 89z m58 -32
c15 -28 13 -39 -10 -51 -15 -8 -25 -8 -38 0 -16 11 -16 11 0 6 15 -4 16 -2 6
14 -7 10 -15 17 -19 14 -4 -2 -5 5 -2 16 7 26 49 27 63 1z"/>
<path d="M2344 1622 c10 -12 22 -19 26 -17 9 6 32 -20 25 -27 -3 -2 2 -5 10
-5 8 0 13 3 10 5 -3 3 0 11 6 19 6 7 9 14 5 14 -3 1 -15 3 -26 4 -11 1 -22 4
-25 5 -3 1 -8 3 -12 4 -5 1 -15 5 -23 10 -9 6 -8 1 4 -12z m76 -18 c0 -8 -19
-13 -24 -6 -3 5 1 9 9 9 8 0 15 -2 15 -3z"/>
<path d="M2129 1367 c6 -8 7 -18 3 -23 -4 -5 -3 -6 2 -1 5 4 18 -1 30 -10 18
-16 17 -14 -3 15 -12 17 -27 32 -33 32 -7 0 -7 -4 1 -13z"/>
<path d="M2420 1359 c0 -5 5 -7 10 -4 6 3 10 8 10 11 0 2 -4 4 -10 4 -5 0 -10
-5 -10 -11z"/>
<path d="M2324 1296 c1 -8 5 -18 8 -22 4 -3 5 1 4 10 -1 8 -5 18 -8 22 -4 3
-5 -1 -4 -10z"/>
<path d="M1070 1465 c13 -14 26 -25 28 -25 3 0 -5 11 -18 25 -13 14 -26 25
-28 25 -3 0 5 -11 18 -25z"/>
<path d="M1300 1365 c13 -14 26 -25 28 -25 3 0 -5 11 -18 25 -13 14 -26 25
-28 25 -3 0 5 -11 18 -25z"/>
<path d="M1241 1336 c-9 -10 -9 -16 -1 -21 6 -4 14 -4 17 -1 4 3 1 6 -6 6 -7
0 -9 5 -6 10 4 6 11 7 17 4 7 -4 8 -2 4 4 -9 15 -11 15 -25 -2z"/>
<path d="M1230 1257 c0 -2 6 -10 14 -16 11 -9 16 -9 22 1 4 7 4 10 -1 6 -4 -4
-14 -3 -22 3 -7 6 -13 9 -13 6z"/>
<path d="M2663 1273 c-15 -5 -17 -39 -5 -47 10 -6 52 30 52 44 0 10 -26 12
-47 3z"/>
<path d="M1783 1258 c-29 -14 -35 -33 -17 -49 19 -15 47 -1 52 26 5 25 -10 34
-35 23z"/>
<path d="M1846 1243 c-12 -46 -26 -138 -36 -238 -5 -60 -12 -129 -15 -152 l-6
-41 -71 139 c-39 76 -77 139 -84 139 -18 0 -20 8 22 -95 85 -211 142 -313 159
-286 7 13 41 304 51 442 4 64 3 98 -4 103 -6 3 -13 -2 -16 -11z"/>
<path d="M2577 1248 c-31 -11 -34 -40 -5 -46 20 -4 61 34 53 48 -7 12 -11 12
-48 -2z"/>
<path d="M1680 1215 c-18 -21 -5 -45 24 -45 25 0 44 30 31 50 -9 15 -41 12
-55 -5z"/>
<path d="M1202 1080 c-125 -164 -122 -187 18 -126 l82 35 -17 -27 c-10 -15
-58 -85 -107 -155 -49 -71 -91 -134 -93 -140 -5 -13 11 -44 18 -37 17 18 287
415 287 422 0 16 -40 7 -120 -27 -45 -19 -83 -35 -86 -35 -2 0 26 45 61 100
36 55 65 102 65 105 0 19 -27 -10 -108 -115z"/>
<path d="M2150 1193 c1 -5 17 -20 38 -34 l37 -25 18 -130 c10 -71 20 -139 23
-150 5 -17 -8 -33 -66 -80 -39 -33 -75 -60 -79 -62 -7 -2 -34 80 -28 83 22 11
97 81 97 91 0 22 -19 17 -62 -17 -21 -17 -40 -30 -42 -28 -2 2 -18 58 -36 124
-40 149 -43 158 -47 120 -2 -16 8 -86 21 -154 28 -135 29 -129 -27 -162 -21
-12 -23 -7 -31 81 -13 142 -39 310 -49 310 -17 0 13 -444 32 -463 7 -7 26 4
60 32 l49 42 13 -56 c7 -31 16 -58 19 -60 4 -3 47 27 96 65 l89 69 8 -36 c7
-33 4 -40 -28 -73 -38 -39 -42 -52 -22 -69 10 -8 20 -4 42 19 21 22 32 27 41
19 10 -8 15 -4 20 18 5 22 131 169 154 181 4 1 37 -43 74 -98 38 -55 72 -98
75 -95 4 2 40 76 81 164 l73 160 -33 37 -32 37 23 13 c26 14 39 10 39 -12 0
-27 72 -309 82 -321 15 -18 28 -6 28 25 0 15 -20 94 -46 176 -25 82 -41 152
-37 156 4 4 37 20 73 36 62 27 79 39 80 57 0 16 -38 5 -148 -45 l-115 -52 -42
48 c-30 35 -47 47 -59 43 -9 -4 -16 -13 -16 -21 0 -8 -32 -57 -71 -108 -68
-89 -73 -93 -117 -100 -26 -4 -48 -5 -50 -4 -2 2 17 18 42 36 53 39 64 59 39
78 -19 14 -269 142 -278 142 -3 0 -5 -3 -5 -7z m510 -123 c0 -3 -16 -14 -35
-23 -19 -9 -35 -23 -35 -32 0 -19 -1 -19 53 4 l46 20 26 -35 c31 -40 31 -37
-34 -177 l-47 -101 -56 79 -56 79 19 25 c26 33 24 41 -12 41 -36 0 -38 -6 26
97 l50 81 28 -26 c15 -14 27 -29 27 -32z m-313 -12 c18 -11 33 -22 33 -25 0
-6 -12 -16 -62 -53 l-26 -20 -12 52 c-6 29 -14 64 -17 78 l-6 24 28 -18 c16
-10 43 -27 62 -38z m117 -156 c3 -5 -26 -39 -63 -76 l-69 -68 -7 31 c-5 23 -2
37 9 50 21 23 20 31 -3 31 -10 0 -21 7 -24 15 -5 11 6 15 51 18 31 2 67 4 79
5 12 1 24 -2 27 -6z"/>
<path d="M1402 905 c2 -205 7 -278 16 -287 24 -24 30 10 25 141 l-5 126 30 35
c17 19 32 33 34 30 2 -3 39 -66 81 -141 85 -151 102 -172 112 -139 7 23 -30
96 -119 228 l-56 84 55 75 c56 77 66 103 41 103 -18 0 -46 -34 -121 -144 l-60
-88 -2 43 c-8 142 -16 209 -25 209 -7 0 -9 -91 -6 -275z"/>
<path d="M2787 584 c-26 -59 -44 -112 -40 -118 45 -75 163 -214 163 -192 0 2
20 72 45 155 48 159 52 181 34 181 -18 0 -170 -131 -166 -143 7 -22 23 -16 71
23 27 22 50 39 53 37 3 -3 -37 -151 -53 -196 -3 -9 -27 16 -65 67 l-60 80 39
106 c22 58 36 106 33 106 -4 0 -28 -48 -54 -106z"/>
<path d="M1808 648 c-2 -16 -12 -25 -33 -29 l-30 -7 31 -1 c31 -1 31 -2 37
-63 5 -57 3 -65 -19 -89 -32 -33 -19 -80 13 -48 8 8 13 -4 18 -47 8 -81 14
-104 24 -104 17 0 20 30 11 117 -6 52 -6 91 0 97 5 5 40 -25 87 -75 168 -182
193 -203 193 -162 0 10 -56 71 -125 137 -69 65 -125 122 -125 127 0 4 23 34
50 65 28 31 50 61 50 67 0 5 -31 6 -80 2 -77 -7 -80 -6 -80 14 0 28 -18 27
-22 -1z m85 -83 c-20 -25 -41 -45 -45 -45 -4 0 -8 20 -8 45 l0 45 45 0 46 0
-38 -45z"/>
<path d="M2402 636 c-6 -19 -18 -72 -27 -118 -11 -52 -25 -89 -36 -100 -23
-20 -24 -29 -2 -21 13 5 15 3 9 -13 -10 -26 -20 -114 -13 -114 6 0 19 38 37
106 9 36 16 44 52 58 22 10 44 13 48 9 4 -4 15 -36 25 -71 18 -61 39 -92 52
-78 4 4 -5 43 -20 88 -19 58 -23 84 -15 89 14 9 3 40 -13 37 -6 -2 -24 32 -38
76 -15 44 -32 81 -38 83 -7 3 -16 -12 -21 -31z m52 -133 c6 -18 1 -25 -24 -38
-18 -9 -33 -15 -35 -13 -2 2 3 33 12 68 17 65 17 65 29 35 6 -17 15 -40 18
-52z"/>
<path d="M2722 657 c-6 -7 -19 -55 -29 -105 -10 -51 -21 -92 -25 -92 -3 0 -23
41 -44 90 -27 67 -41 90 -53 88 -11 -3 -15 -13 -14 -38 1 -19 5 -97 9 -173 3
-77 10 -135 15 -130 4 4 10 58 11 118 l3 110 58 -118 c32 -64 62 -128 67 -142
9 -24 40 -35 40 -14 0 6 -16 45 -35 86 l-35 77 26 100 c15 56 29 113 32 129 5
29 -8 36 -26 14z"/>
<path d="M1545 568 l-60 -92 -14 63 c-7 34 -15 60 -18 58 -4 -5 14 -261 23
-324 3 -18 9 -33 15 -33 19 0 22 34 12 109 -9 62 -9 80 3 103 8 15 17 28 19
28 3 0 19 -28 36 -62 17 -35 44 -81 59 -103 14 -22 30 -49 34 -59 6 -18 8 -18
22 -4 20 20 15 30 -75 159 l-65 93 43 78 c23 43 38 78 34 78 -4 0 -35 -42 -68
-92z"/>
<path d="M1678 593 c-25 -32 -54 -72 -66 -89 l-22 -32 76 -98 c41 -55 80 -100
85 -102 26 -10 3 40 -52 110 -34 44 -59 81 -57 83 2 3 30 6 61 7 38 2 58 8 62
17 10 25 -9 31 -50 16 -22 -8 -48 -14 -59 -15 -17 0 -17 2 -4 23 30 45 80 137
75 137 -3 0 -25 -26 -49 -57z"/>
<path d="M2160 631 c0 -10 -14 -71 -31 -135 -17 -65 -29 -119 -27 -119 2 -1
35 -32 75 -70 75 -70 103 -83 103 -44 0 12 9 78 21 145 15 85 18 127 11 134
-7 7 -31 -8 -76 -48 -36 -33 -66 -62 -66 -65 0 -4 8 -10 17 -13 11 -4 28 4 50
25 18 18 34 31 36 28 1 -2 -7 -41 -18 -87 l-20 -83 -47 48 -47 48 15 80 c24
135 28 175 15 175 -6 0 -11 -8 -11 -19z"/>
<path d="M1395 463 c3 -65 8 -142 11 -170 5 -53 19 -68 31 -36 8 21 -28 323
-39 323 -4 0 -6 -53 -3 -117z"/>
<path d="M1993 1255 c0 -8 4 -12 9 -9 5 3 6 10 3 15 -9 13 -12 11 -12 -6z"/>
</g>
</svg>
